<svg viewBox="0 0 208 42" xmlns="http://www.w3.org/2000/svg"><defs><linearGradient x1="0%" y1="10.304%" x2="95.632%" y2="72.462%" id="a"><stop stop-color="#2BEAED" offset="0%"/><stop stop-color="#0FCCCE" offset="100%"/></linearGradient></defs><g fill="none" fill-rule="evenodd"><rect fill="url(#a)" fill-rule="nonzero" width="41.872" height="42" rx="3.415"/><path d="M31.864 8.553a1.814 1.814 0 011.527 2.06 1.811 1.811 0 01-2.057 1.531c-2.21-.328-5.326 2.914-8.795 9.538-4.306 8.225-8.287 12.117-12.4 11.812a1.813 1.813 0 01-1.672-1.943c.074-1 .942-1.75 1.94-1.676 2.271.168 5.43-3.203 8.926-9.88 4.331-8.272 8.359-12.06 12.531-11.442z" stroke="#FFF" stroke-width=".778" fill="#FFF" fill-rule="nonzero"/><path d="M51.813 33.122V8.878h4.868v19.976h10.69v4.268H51.812zm26.383.307c-5.31 0-8.851-3.653-8.851-8.639 0-4.985 3.54-8.605 8.85-8.605 5.175 0 8.818 3.483 8.818 8.605 0 5.088-3.643 8.64-8.817 8.64zm0-4.029c2.383 0 4.29-1.878 4.29-4.61 0-2.731-1.84-4.61-4.29-4.61-2.587 0-4.324 1.981-4.324 4.61 0 2.595 1.77 4.61 4.324 4.61zm16.613 4.03c-2.86 0-4.732-1.81-4.732-5.567v-7.717h-1.975v-3.722h1.975v-5.429l4.46-.478v5.907h4.493v3.722h-4.494v7.069c0 1.468.375 2.15 1.43 2.15.545 0 1.362-.204 2.11-.58l1.124 3.586c-1.055.58-2.145 1.058-4.391 1.058zm12.561 0c-2.86 0-4.732-1.81-4.732-5.567v-7.717h-1.974v-3.722h1.974v-5.429l4.46-.478v5.907h4.493v3.722h-4.493v7.069c0 1.468.374 2.15 1.43 2.15.544 0 1.361-.204 2.11-.58l1.124 3.586c-1.056.58-2.145 1.058-4.392 1.058zm9.907-19.26c-1.634 0-2.826-1.229-2.826-2.765 0-1.503 1.192-2.732 2.826-2.732 1.6 0 2.825 1.23 2.825 2.732 0 1.536-1.225 2.766-2.825 2.766zm-2.281 18.952V16.424h4.46v16.698h-4.46zm23.557-8.502c0 .546-.068 1.331-.102 1.604h-11.677c.545 2.015 2.145 3.21 4.392 3.21 1.872 0 3.166-.785 4.051-1.878l2.894 2.698c-1.396 1.81-3.54 3.175-7.251 3.175-5.107 0-8.715-3.449-8.715-8.673 0-5.088 3.506-8.57 8.442-8.57 4.698 0 7.966 3.55 7.966 8.434zm-8-4.542c-1.804 0-3.234 1.024-3.744 2.937h7.319c-.443-1.776-1.634-2.937-3.575-2.937z" fill="#18C8CA"/><path d="M141.243 33.122V8.878h16.034v4.268h-11.303v6.488h9.43v4.303h-9.43v9.185h-4.731zm22.025-18.951c-1.634 0-2.825-1.23-2.825-2.766 0-1.503 1.191-2.732 2.825-2.732 1.6 0 2.826 1.23 2.826 2.732 0 1.536-1.226 2.766-2.826 2.766zm-2.28 18.951V16.424h4.459v16.698h-4.46zm8.101 0V7.99h4.46v25.132h-4.46zm23.558-8.502c0 .546-.068 1.331-.102 1.604h-11.677c.545 2.015 2.145 3.21 4.392 3.21 1.872 0 3.166-.785 4.05-1.878l2.894 2.698c-1.395 1.81-3.54 3.175-7.25 3.175-5.107 0-8.716-3.449-8.716-8.673 0-5.088 3.507-8.57 8.443-8.57 4.698 0 7.966 3.55 7.966 8.434zm-8-4.542c-1.804 0-3.234 1.024-3.745 2.937h7.32c-.443-1.776-1.635-2.937-3.575-2.937zm16.85 13.351c-2.654 0-4.935-.888-6.74-2.458l2.145-3.108c1.362 1.264 2.792 1.913 4.63 1.913 1.294 0 2.008-.547 2.008-1.366 0-.717-.85-1.093-2.995-1.81-2.758-.922-5.14-2.22-5.14-5.463 0-3.005 2.586-4.952 6.025-4.952 2.28 0 4.153.615 6.06 2.083l-2.18 3.312c-1.259-1.229-2.757-1.775-3.982-1.775-.681 0-1.566.341-1.566 1.23 0 .682.817 1.16 2.45 1.775 3.61 1.331 5.72 2.117 5.72 5.429 0 2.937-2.077 5.19-6.434 5.19z" fill="#006B78"/></g></svg>