<svg viewBox="0 0 21 17" xmlns="http://www.w3.org/2000/svg" class="w-5 mr-2"><path d="M7.82 17c-3.512 0-6.368-.61-7.642-1.63a.468.468 0 01-.152-.523.488.488 0 01.451-.328c2.096-.044 3.438-.52 4.473-1.12-2.013-.238-3.227-1.192-3.877-3.005a.425.425 0 01.138-.477.434.434 0 01.501-.024c.533.34 1.062.411 1.706.412C2.086 9.49.824 8.13.353 6.472a.419.419 0 01.18-.471.431.431 0 01.516.038c.379.329.83.528 1.45.622C1.1 5.271.25 3.205 1.448.901l.229-.443.345.36c2.207 2.303 4.246 3.358 7.935 4.068v-.14c0-2.572 2.039-4.7 4.544-4.746.99-.011 2.385.701 2.942 1.012a.098.098 0 00.08.01c.698-.216 1.577-.576 2.57-.99a.4.4 0 01.422.073.391.391 0 01.109.409c-.162.497-.47 1.02-.887 1.523l.708-.243a.418.418 0 01.535.516c-.328 1.025-.948 1.788-1.761 2.174v.12C19.219 11.44 14.105 17 7.819 17" fill="#6A6A6A" fill-rule="evenodd"/></svg>